<svg width="148" height="121" viewBox="0 0 148 121" fill="none" xmlns="http://www.w3.org/2000/svg">
<path d="M28.9788 99.1919V44.0841C28.7175 35.7708 34.155 22.3861 44.6642 16.5301C53.631 11.5336 61.3429 10.8836 69.081 11.145" stroke="#F8E928" stroke-width="2"/>
<path d="M95.7988 21.3405C115.04 19.0399 146.619 28.5453 146.619 88.1078" stroke="#F8E928" stroke-width="2"/>
<path d="M91.7331 56.3536C102.467 46.6981 103.342 30.1689 93.6866 19.4345C84.0312 8.70014 67.502 7.82551 56.7676 17.481" stroke="#F8E928" stroke-width="2"/>
<circle cx="44.9779" cy="57.7827" r="3.7056" stroke="#F8E928" stroke-width="2"/>
<path d="M137.103 64.3706V120.001H104.164V97.1007C101.062 98.2276 89.0015 97.1007 89.0015 97.1007V119.897H56.2714V77.128C51.1824 83.5764 36.6333 93.5453 19.1494 81.8336" stroke="#F8E928" stroke-width="2"/>
<path d="M46.9646 85.1797V99.8193C46.8949 103.131 44.2877 111.28 34.4164 117.387C22.0772 125.02 2.52284 114.354 2 100.551L15.594 97.4143C16.0471 99.6102 18.2082 103.814 23.2275 103.061C28.2468 102.308 29.1879 100.238 29.0311 99.2965" stroke="#F8E928" stroke-width="2"/>
<path d="M80.4268 120.001V96.6824M113.314 120.001V96.3687" stroke="#F8E928" stroke-width="2"/>
</svg>
