<svg width="190" height="190" viewBox="0 0 190 190" fill="none" xmlns="http://www.w3.org/2000/svg">
<g clip-path="url(#clip0_1386_260)">
<path d="M142.5 63.3334C148.799 63.3334 154.84 65.8356 159.294 70.2896C163.748 74.7436 166.25 80.7845 166.25 87.0834C166.25 93.3823 163.748 99.4232 159.294 103.877C154.84 108.331 148.799 110.833 142.5 110.833" stroke="#F8E928" stroke-width="2" stroke-linecap="round" stroke-linejoin="round"/>
<path d="M79.1667 63.3334V150.417C79.1667 152.516 78.3327 154.53 76.848 156.015C75.3633 157.499 73.3497 158.333 71.2501 158.333H63.3334C61.2338 158.333 59.2202 157.499 57.7355 156.015C56.2508 154.53 55.4167 152.516 55.4167 150.417V110.833" stroke="#F8E928" stroke-width="2" stroke-linecap="round" stroke-linejoin="round"/>
<path d="M95 63.3333L130.815 33.4875C131.856 32.6207 133.122 32.0684 134.465 31.8955C135.808 31.7225 137.173 31.936 138.4 32.511C139.626 33.0859 140.663 33.9985 141.389 35.1417C142.115 36.2849 142.501 37.6114 142.5 38.9658V135.201C142.501 136.555 142.115 137.882 141.389 139.025C140.663 140.168 139.626 141.081 138.4 141.656C137.173 142.231 135.808 142.444 134.465 142.271C133.122 142.098 131.856 141.546 130.815 140.679L95 110.833H31.6667C29.567 110.833 27.5534 109.999 26.0687 108.515C24.5841 107.03 23.75 105.016 23.75 102.917V71.25C23.75 69.1504 24.5841 67.1367 26.0687 65.6521C27.5534 64.1674 29.567 63.3333 31.6667 63.3333H95Z" stroke="#F8E928" stroke-width="2" stroke-linecap="round" stroke-linejoin="round"/>
</g>
<defs>
<clipPath id="clip0_1386_260">
<rect width="190" height="190" fill="white"/>
</clipPath>
</defs>
</svg>
