<svg width="87" height="33" viewBox="0 0 87 33" fill="none" xmlns="http://www.w3.org/2000/svg">
<g clip-path="url(#clip0_1386_415)">
<path d="M6.52359 28.1727H4.97927V32.9166H3.93412V28.1727H2.2962V27.313H6.77318L6.52359 28.1727Z" fill="white"/>
<path d="M9.91174 32.9166V30.5694C9.91174 30.1179 9.84311 29.6911 9.29402 29.6911C8.94147 29.6911 8.58269 29.889 8.30814 30.1179V32.9166H7.27859V26.8955H8.30814V29.3262C8.68564 29.0201 9.13178 28.7974 9.6528 28.7974C10.2799 28.7974 10.9475 29.0974 10.9475 30.2787V32.9135H9.90862L9.91174 32.9166Z" fill="white"/>
<path d="M12.7134 31.1724C12.729 31.7662 13.2281 32.1836 13.8521 32.1836C14.239 32.1836 14.5541 32.0909 14.9066 31.9022L15.1562 32.5578C14.7007 32.8702 14.161 33.0001 13.6805 33.0001C12.2641 33.0001 11.6651 31.9795 11.6651 30.9003C11.6651 29.7529 12.3515 28.7974 13.5089 28.7974C14.6071 28.7974 15.3278 29.6231 15.3278 30.8724V31.1724H12.7134ZM13.484 29.5643C12.9879 29.5643 12.6853 30.0065 12.6853 30.4488H14.2639C14.2483 30.0158 14.0081 29.5643 13.484 29.5643Z" fill="white"/>
<path d="M22.7717 28.1727H21.2274V32.9166H20.1791V28.1727H18.5412V27.313H23.0182L22.7717 28.1727Z" fill="white"/>
<path d="M25.2489 29.8363C25.0773 29.7342 24.8963 29.7095 24.7778 29.7095C24.522 29.7095 24.2973 29.8023 23.9885 30.0682V32.9164H22.9589V28.8931H23.8262L23.9448 29.3198C24.3566 28.9549 24.6748 28.8003 25.0523 28.8003C25.2583 28.8003 25.4798 28.8591 25.6358 28.9704L25.2489 29.8363Z" fill="white"/>
<path d="M28.5778 32.9167L28.4062 32.5611C28.141 32.7992 27.7697 33.0033 27.23 33.0033C26.4844 33.0033 25.9009 32.5023 25.9009 31.7107C25.9009 30.8788 26.5623 30.4273 27.5981 30.3933L28.3188 30.3685V30.2665C28.3188 29.7717 27.9756 29.5861 27.5201 29.5861C27.099 29.5861 26.7558 29.7315 26.5 29.883L26.1661 29.2459C26.7059 28.8872 27.2144 28.8037 27.7541 28.8037C28.7587 28.8037 29.3671 29.2119 29.3671 30.2665V31.856C29.3671 32.4343 29.3827 32.7343 29.4451 32.9198H28.5778V32.9167ZM28.3219 31.0705L27.7385 31.0891C27.1832 31.1045 26.9336 31.2932 26.9336 31.6333C26.9336 31.9735 27.1645 32.1931 27.595 32.1931C27.9569 32.1931 28.1878 32.057 28.3251 31.9395V31.0736L28.3219 31.0705Z" fill="white"/>
<path d="M32.3934 32.9411H31.6477L29.9848 28.8931H31.0144L32.0252 31.633H32.0439L33.0704 28.8931H34.0937L32.3934 32.9411Z" fill="white"/>
<path d="M35.3323 31.1724C35.3479 31.7662 35.847 32.1836 36.4741 32.1836C36.861 32.1836 37.1761 32.0909 37.5286 31.9022L37.7782 32.5578C37.3227 32.8702 36.783 33.0001 36.3025 33.0001C34.8892 33.0001 34.2871 31.9795 34.2871 30.9003C34.2871 29.7529 34.9735 28.7974 36.1309 28.7974C37.2291 28.7974 37.9498 29.6231 37.9498 30.8724V31.1724H35.3323ZM36.1029 29.5643C35.6037 29.5643 35.3042 30.0065 35.3042 30.4488H36.8828C36.8672 30.0158 36.627 29.5643 36.1029 29.5643Z" fill="white"/>
<path d="M39.6782 33.0001C39.0012 33.0001 38.7422 32.6166 38.7422 32.1156V26.8955H39.7718V31.6641C39.7718 31.961 39.8311 32.0816 40.0463 32.0816C40.115 32.0816 40.2023 32.0723 40.3459 32.0383L40.4738 32.796C40.1743 32.9568 39.9091 33.0001 39.6751 33.0001" fill="white"/>
<path d="M47.9427 32.9164L47.3842 31.5124H45.3688L44.8478 32.9164H43.8089L46.0052 27.2881H46.7571L49.0315 32.9164H47.9427ZM46.6043 29.3879C46.5013 29.1065 46.4327 28.8776 46.389 28.6921H46.3827C46.3484 28.8869 46.2704 29.1096 46.1768 29.3724L45.687 30.6744H47.0597L46.6043 29.391V29.3879Z" fill="white"/>
<path d="M50.9533 33.0001C50.2857 33.0001 49.7865 32.83 49.4527 32.6259L49.7865 31.8744C50.086 32.0785 50.4729 32.2331 50.8753 32.2331C51.2778 32.2331 51.5679 32.0816 51.5679 31.8064C51.5679 31.0858 49.6991 31.3579 49.6991 29.9911C49.6991 29.2922 50.2576 28.7974 51.2341 28.7974C51.6709 28.7974 52.0827 28.8747 52.4165 29.0046V29.855C52.0733 29.7189 51.7052 29.589 51.2684 29.589C50.9159 29.589 50.6912 29.7004 50.6912 29.9354C50.6912 30.5755 52.5975 30.3622 52.5975 31.7476C52.5975 32.6506 51.8238 32.997 50.9502 32.997" fill="white"/>
<path d="M54.7252 33.0001C54.0575 33.0001 53.5584 32.83 53.2245 32.6259L53.5584 31.8744C53.8579 32.0785 54.2447 32.2331 54.6472 32.2331C55.0497 32.2331 55.3429 32.0816 55.3429 31.8064C55.3429 31.0858 53.471 31.3579 53.471 29.9911C53.471 29.2922 54.0295 28.7974 55.0091 28.7974C55.4459 28.7974 55.8577 28.8747 56.1915 29.0046V29.855C55.8483 29.7189 55.4802 29.589 55.0403 29.589C54.6878 29.589 54.4662 29.7004 54.4662 29.9354C54.4662 30.5755 56.3693 30.3622 56.3693 31.7476C56.3693 32.6506 55.5987 32.997 54.7221 32.997" fill="white"/>
<path d="M63.7665 33.0001C62.4437 33.0001 61.7698 32.0569 61.7698 30.925C61.7698 29.7004 62.659 28.7974 63.8695 28.7974C64.4186 28.7974 64.7961 28.9365 65.0269 29.0788L65.0082 29.9107C64.7243 29.7004 64.4092 29.5798 63.988 29.5798C63.2923 29.5798 62.7962 30.124 62.7962 30.8693C62.7962 31.559 63.1737 32.1713 63.9787 32.1713C64.3655 32.1713 64.6588 32.0538 64.9427 31.8899L65.1985 32.5609C64.874 32.7805 64.325 32.9939 63.7665 32.9939" fill="white"/>
<path d="M66.5962 28.2744C66.2437 28.2744 65.9598 28.0023 65.9598 27.6528C65.9598 27.3034 66.2437 27.0405 66.5962 27.0405C66.9488 27.0405 67.2358 27.3127 67.2358 27.6528C67.2358 27.993 66.955 28.2744 66.5962 28.2744ZM66.0815 28.8929H67.111V32.9163H66.0815V28.8929Z" fill="white"/>
<path d="M70.7051 32.9167L70.5335 32.5611C70.2683 32.7992 69.9001 33.0033 69.3573 33.0033C68.6116 33.0033 68.0282 32.5023 68.0282 31.7107C68.0282 30.8788 68.6896 30.4273 69.7254 30.3933L70.4461 30.3685V30.2665C70.4461 29.7717 70.1029 29.5861 69.6474 29.5861C69.2294 29.5861 68.8862 29.7315 68.6272 29.883L68.2903 29.2459C68.8331 28.8872 69.3386 28.8037 69.8783 28.8037C70.8798 28.8037 71.4913 29.2119 71.4913 30.2665V31.856C71.4913 32.4343 71.5069 32.7343 71.5693 32.9198H70.7019L70.7051 32.9167ZM70.4461 31.0705L69.8627 31.0891C69.3042 31.1045 69.0547 31.2932 69.0547 31.6333C69.0547 31.9735 69.2886 32.1931 69.7161 32.1931C70.078 32.1931 70.3088 32.057 70.4461 31.9395V31.0736V31.0705Z" fill="white"/>
<path d="M73.9996 33.0002C73.2103 33.0002 72.9295 32.6013 72.9295 32.057V29.6604H72.2088V28.8965H72.9295V27.9688L73.959 27.6626V28.8965H75.2195L74.9199 29.6604H73.959V31.7169C73.959 32.0323 74.0807 32.1776 74.3428 32.1776C74.6048 32.1776 74.8669 32.0663 75.0291 31.989L75.3037 32.6539C74.9168 32.8982 74.4052 33.0002 73.9996 33.0002Z" fill="white"/>
<path d="M76.6858 28.2744C76.3364 28.2744 76.0493 28.0023 76.0493 27.6528C76.0493 27.3034 76.3333 27.0405 76.6858 27.0405C77.0383 27.0405 77.3285 27.3127 77.3285 27.6528C77.3285 27.993 77.0446 28.2744 76.6858 28.2744ZM76.171 28.8929H77.2006V32.9163H76.171V28.8929Z" fill="white"/>
<path d="M81.5372 32.4216C81.1753 32.7865 80.6792 32.9999 80.0708 32.9999C79.5061 32.9999 79.0226 32.8205 78.6731 32.4989C78.2676 32.1247 78.0461 31.5743 78.0461 30.9248C78.0461 30.2754 78.2613 29.7528 78.6357 29.3693C78.9976 29.0137 79.4843 28.8003 80.0771 28.8003C80.7042 28.8003 81.2096 29.0137 81.5715 29.3786C81.9209 29.7528 82.1112 30.2816 82.1112 30.8908C82.1112 31.5 81.9147 32.0474 81.5372 32.4216ZM80.0583 29.6074C79.4063 29.6074 79.0912 30.1517 79.0912 30.9001C79.0912 31.6485 79.4593 32.2082 80.0833 32.2082C80.7073 32.2082 81.0536 31.6547 81.0536 30.9001C81.0536 30.1455 80.6948 29.6074 80.0583 29.6074Z" fill="white"/>
<path d="M60.5593 32.4216C60.2005 32.7865 59.7014 32.9999 59.093 32.9999C58.5283 32.9999 58.0478 32.8205 57.6953 32.4989C57.2928 32.1247 57.0682 31.5743 57.0682 30.9248C57.0682 30.2754 57.2835 29.7528 57.6579 29.3693C58.0198 29.0137 58.5096 28.8003 59.0992 28.8003C59.7263 28.8003 60.2317 29.0137 60.5905 29.3786C60.9399 29.7528 61.1302 30.2816 61.1302 30.8908C61.1302 31.5 60.9337 32.0474 60.5562 32.4216M59.0805 29.6074C58.4316 29.6074 58.1134 30.1517 58.1134 30.9001C58.1134 31.6485 58.4815 32.2082 59.1086 32.2082C59.7357 32.2082 60.0757 31.6547 60.0757 30.9001C60.0757 30.1455 59.717 29.6074 59.0805 29.6074Z" fill="white"/>
<path d="M85.4026 32.9166V30.5508C85.4026 30.1364 85.3278 29.6756 84.8036 29.6756C84.4417 29.6756 84.0892 29.8643 83.7741 30.1024V32.9166H82.7445V28.8932H83.6181L83.7304 29.3262C84.1672 29.0046 84.604 28.7974 85.1531 28.7974C85.7708 28.7974 86.4322 29.1654 86.4322 30.2416V32.9135H85.4026V32.9166Z" fill="white"/>
<path d="M11.8492 0C11.4748 0 11.1067 0.018555 10.7416 0.0525724V1.94209V22.6865V23.4256C11.1067 23.4627 11.4748 23.4813 11.8492 23.4813C18.3915 23.4813 23.6952 18.2241 23.6952 11.7391C23.6952 5.25415 18.3915 0 11.8492 0ZM16.1795 12.8122C16.1296 13.5606 16.0329 14.2935 15.8863 15.0048H13.1127V12.8122H16.1826H16.1795ZM13.1096 10.6196V8.43014H15.8707C16.0204 9.13832 16.1234 9.87124 16.1733 10.6196H13.1096ZM18.5069 12.8122H21.2867C21.1994 13.573 21.0246 14.3059 20.7657 15.0048H18.2105C18.3572 14.2935 18.457 13.5606 18.5069 12.8122ZM18.5038 10.6196C18.4508 9.87124 18.3447 9.13832 18.1949 8.43014H20.747C21.009 9.12595 21.19 9.85887 21.2805 10.6196H18.5069H18.5038ZM19.5552 6.23447H17.5554C17.1592 5.17683 16.6506 4.18724 16.0485 3.29041C17.4462 3.97385 18.6504 4.98819 19.5552 6.23447ZM15.2342 6.23447H13.1096V2.41215C13.9894 3.53163 14.707 4.8212 15.2342 6.23447ZM13.1096 21.0753V17.1974H15.2561C14.7288 18.6323 14.0019 19.9435 13.1127 21.0753H13.1096ZM16.0672 20.1785C16.6756 19.2724 17.1841 18.2705 17.5803 17.1974H19.5895C18.6816 18.456 17.4774 19.4858 16.0672 20.1785Z" fill="white"/>
<path d="M50.0111 22.0682H43.7902V2.64111H49.9144C53.8735 2.64111 55.6861 5.3254 55.6861 7.68497C55.6861 9.54047 54.9124 10.7806 53.3369 11.7238V11.7825C55.5988 12.2804 56.9621 13.8483 56.9621 16.2079C56.9621 18.9818 54.9405 22.0743 50.008 22.0743M49.4121 5.65011H47.3873V10.7187H49.2873C50.8972 10.7187 52.0858 9.68891 52.0858 8.06535C52.0858 6.683 51.1312 5.65011 49.409 5.65011M50.0954 13.6968H47.3905V19.0653H49.6804C52.0921 19.0653 53.2776 17.9984 53.2776 16.2357C53.2776 14.7297 52.117 13.6999 50.0954 13.6999" fill="white"/>
<path d="M71.4008 5.61918H66.1844V22.0682H62.5529V5.61918H56.8748V2.64111H72.5707L71.4008 5.61918Z" fill="white"/>
<path d="M38.3148 22.068L36.3774 17.1973H29.3827L27.567 22.068H23.9635L31.5479 2.63477H34.2434L42.0961 22.068H38.3148ZM33.6694 9.81863C33.3075 8.84449 33.0735 8.04663 32.9268 7.40339H32.8956C32.7771 8.08065 32.5119 8.84449 32.1843 9.76296L30.484 14.2873H35.2543L33.6694 9.81863Z" fill="white"/>
<path d="M83.2156 22.068L81.2813 17.1973H74.2835L72.4709 22.068H68.8675L76.4487 2.63477H79.1474L87 22.068H83.2156ZM78.5733 9.81863C78.2114 8.84449 77.9743 8.04663 77.8308 7.40339H77.7996C77.681 8.08065 77.4158 8.84449 77.0883 9.76296L75.3879 14.2873H80.1582L78.5764 9.81863H78.5733Z" fill="white"/>
<path d="M9.61848 9.52809V8.63745L3.94972 3.01221C3.63462 3.29362 3.33199 3.58741 3.05121 3.89975L8.72621 9.525H9.61848V9.52809Z" fill="white"/>
<path d="M9.61849 13.8913V14.7819L3.94661 20.4041C3.63151 20.1227 3.32888 19.8289 3.0481 19.5134L8.72309 13.8882H9.61537L9.61849 13.8913Z" fill="white"/>
<path d="M9.61848 10.6475H0.0530374C0.0187191 11.0062 0 11.3711 0 11.7422C0 12.1133 0.0187191 12.4751 0.0530374 12.8339H9.61848V10.6475Z" fill="white"/>
<path d="M2.42725 4.64502C1.34467 6.0552 0.580305 7.71587 0.237122 9.52497H7.35349L2.42725 4.64502Z" fill="white"/>
<path d="M9.61848 7.27338V0.225586C7.79649 0.56576 6.12114 1.32342 4.69849 2.39652L9.61848 7.27338Z" fill="white"/>
<path d="M4.69849 21.0229C6.12426 22.0929 7.79649 22.8505 9.61848 23.1938V16.146L4.69849 21.0229Z" fill="white"/>
<path d="M7.35037 13.8916H0.237122C0.580305 15.7007 1.34779 17.3614 2.43037 18.7716L7.35349 13.8916H7.35037Z" fill="white"/>
</g>
<defs>
<clipPath id="clip0_1386_415">
<rect width="87" height="33" fill="white"/>
</clipPath>
</defs>
</svg>
