<svg width="52" height="52" viewBox="0 0 52 52" fill="none" xmlns="http://www.w3.org/2000/svg">
<g clip-path="url(#clip0_1386_448)">
<path d="M36.129 29.577C36.129 29.577 30.1545 29.5004 27.1878 23.5911C23.088 15.4258 31.616 11.0396 31.616 11.0396L39.1861 12.3849L36.129 29.577Z" fill="white"/>
<path d="M27.8528 32.1636C27.4368 32.0898 27.0893 32.1062 26.8156 32.2183C26.5391 32.3277 26.3777 32.5273 26.3257 32.8117C26.2737 33.0961 26.3585 33.3422 26.5802 33.5391C26.7991 33.7387 27.1194 33.8754 27.5354 33.9492C27.9514 34.0231 28.2962 34.0039 28.5671 33.8918C28.8408 33.7797 29.0023 33.5801 29.0516 33.2957C29.1008 33.0113 29.0187 32.7679 28.8025 32.5683C28.5863 32.3687 28.2688 32.2347 27.8528 32.1609V32.1636Z" fill="white"/>
<path d="M17.4775 31.5622L18.7556 31.7919L18.304 30.6816L17.4775 31.5622Z" fill="white"/>
<path d="M24.1006 26.4564C19.1141 21.2499 19.0758 15.0616 22.204 9.40385L18.0522 8.66553L13.416 34.9745L34.5089 38.688L35.9046 30.8262C35.9046 30.8262 29.0872 31.6603 24.1006 26.4564ZM19.2017 32.8607L18.9691 32.2837L17.1108 31.9529L16.6783 32.4123L15.5809 32.2181L17.8251 29.9977L19.0129 30.2082L20.343 33.0631L19.2044 32.8607H19.2017ZM25.0011 31.7368L23.4985 31.4688L23.1263 33.558L22.0699 33.3694L22.4394 31.2802L20.9286 31.0122L21.008 30.5637L25.0804 31.2856L25.0011 31.7368ZM30.0998 33.4842C30.0204 33.9381 29.703 34.2444 29.1529 34.3948C28.7369 34.5261 28.1731 34.5261 27.4533 34.3975C26.7362 34.269 26.2053 34.0749 25.8604 33.8096C25.3952 33.476 25.2009 33.0822 25.2802 32.6256C25.3651 32.1607 25.6798 31.8572 26.2326 31.715C26.6459 31.5837 27.2152 31.5837 27.9322 31.7122C28.6493 31.838 29.183 32.0349 29.5278 32.3001C29.9931 32.6228 30.1846 33.0166 30.1025 33.4815L30.0998 33.4842ZM34.2188 35.5296L30.6773 34.898L31.1289 32.3603L32.1798 32.5463L31.8103 34.63L34.3009 35.073L34.2215 35.5296H34.2188Z" fill="white"/>
<path d="M21.777 49.9516C8.57172 47.6218 -0.279224 34.9828 2.04983 21.7777C4.37888 8.56986 17.0176 -0.279114 30.2229 2.05071C43.4281 4.38054 52.2791 17.0168 49.95 30.2247C47.621 43.4298 34.9823 52.2815 21.777 49.9516ZM0.396776 21.4851C-2.09101 35.6035 7.36751 49.1121 21.4841 51.6033C35.6035 54.0917 49.1098 44.6302 51.6003 30.5145C51.8686 28.9941 51.9972 27.4819 51.9972 25.9861C51.9972 13.6151 43.1079 2.6195 30.513 0.396317C16.3964 -2.09211 2.8873 7.36939 0.396776 21.4851Z" fill="white"/>
<path d="M6.44255 30.8566C6.49729 31.0234 6.55202 31.1984 6.63413 31.3488C6.91055 31.8109 7.39771 31.8765 7.86845 31.748C8.48424 31.5785 8.80718 31.1519 8.69771 30.7526L8.56634 30.2741L6.44255 30.8538M3.70024 31.6058C3.66192 31.4089 3.63455 31.2093 3.58255 31.0179C3.53055 30.8265 3.45392 30.6405 3.3855 30.4518L8.6676 29.0107L9.18487 30.903C9.47771 31.9722 9.20402 32.6668 8.33371 32.9047C6.96255 33.2794 6.39876 32.3578 6.01834 30.9714L3.70024 31.6058Z" fill="white"/>
<path d="M8.35285 35.6009C8.70864 36.3639 9.26148 36.5197 9.97032 36.1041C10.0661 36.0467 10.1674 35.981 10.2933 35.8662C10.7996 35.4204 10.4411 34.9364 10.1947 34.518L8.35011 35.6009M9.96485 33.2684L10.8242 34.7341C11.0158 35.0567 11.3223 35.5517 11.3415 35.9291C11.3661 36.4432 11.1773 36.8315 10.7093 37.1049C10.036 37.5014 9.35453 37.3182 8.84 36.7576C8.40211 37.5233 8.01895 38.3245 7.62211 39.1121L7.3539 39.6316C7.24716 39.4183 7.1459 39.1996 7.02274 38.9835C6.90232 38.7785 6.76 38.5843 6.6259 38.3847L7.58927 36.7193C7.71516 36.5061 7.91769 36.1287 8.09011 35.8224L8.06274 35.7732L5.85411 37.0694C5.76653 36.8889 5.68716 36.7057 5.5859 36.5334C5.48464 36.3611 5.36148 36.2025 5.24927 36.0357L9.97032 33.2656L9.96485 33.2684Z" fill="white"/>
<path d="M11.2375 40.285C10.556 41.0644 10.1838 42.2047 11.0842 42.9922C12.0093 43.8016 13.2327 43.2383 14.1057 42.2429C14.7844 41.4691 15.2004 40.2659 14.3 39.4756C13.4653 38.7455 12.4143 38.9396 11.2375 40.285ZM10.7394 43.3258C9.41476 42.1636 9.20129 40.6022 10.3946 39.2377C11.44 38.0427 13.1588 37.8376 14.6531 39.1474C16.3636 40.646 15.8108 42.2922 15.0034 43.2301C13.9826 44.406 12.2118 44.6138 10.7394 43.3258Z" fill="white"/>
<path d="M17.4282 47.3376C17.2503 47.2446 17.0779 47.1434 16.8945 47.0641C16.7112 46.9821 16.5169 46.9274 16.3307 46.8618L18.2794 42.358C17.7594 42.1337 17.275 41.9861 16.8726 41.8712C16.9301 41.7755 16.9985 41.6825 17.0451 41.5732C17.0889 41.4692 17.1108 41.3571 17.1409 41.2505L20.9122 42.883C20.852 42.9787 20.7863 43.0717 20.7425 43.1756C20.6933 43.285 20.6741 43.3971 20.644 43.5065C20.2335 43.2686 19.823 43.0307 19.3769 42.8365L17.4282 47.3403" fill="white"/>
<path d="M24.7191 43.5421C24.6863 43.6488 24.6425 43.7636 24.6233 43.873C24.6042 43.9824 24.6069 44.1054 24.6042 44.2176C24.1334 44.0726 23.6107 43.9195 22.8061 43.7992L22.5187 45.4918L23.337 45.6286C23.6901 45.6887 24.0185 45.7133 24.3168 45.7215C24.284 45.8282 24.2374 45.943 24.221 46.0524C24.2019 46.1618 24.2046 46.2849 24.2019 46.397C23.9172 46.3095 23.5998 46.222 23.2467 46.1618L22.4284 46.0223L22.089 48.0213C22.8937 48.1498 23.4356 48.2018 23.9254 48.2209C23.8926 48.3276 23.8461 48.4424 23.8297 48.5518C23.8105 48.6612 23.8132 48.7842 23.8105 48.8963L20.8137 48.3877L21.7223 43.0308L24.7191 43.5394" fill="white"/>
<path d="M30.4337 47.7367L30.3242 48.4368C29.8726 48.7294 29.3171 48.8798 28.7834 48.9317C27.0838 49.0958 25.6962 48.1743 25.5375 46.5445C25.3377 44.4717 26.676 43.3861 28.4057 43.2193C28.9312 43.17 29.5798 43.2439 30.0642 43.4517C30.0177 43.7279 29.9985 44.0041 29.9602 44.2885L29.848 44.2994C29.5114 43.9002 28.975 43.6459 28.4604 43.6978C27.1413 43.8236 26.7308 45.1389 26.8457 46.3066C26.9771 47.6656 27.7379 48.5544 28.9585 48.434C29.4512 48.3848 29.9985 48.0758 30.3242 47.7012L30.431 47.7395" fill="white"/>
<path d="M34.955 47.1763C34.7634 47.2337 34.5691 47.2857 34.383 47.3568C34.1968 47.4306 34.0217 47.5263 33.8411 47.6138L32.0484 43.0444C31.5202 43.2523 31.0741 43.4874 30.7074 43.6925C30.68 43.5831 30.6636 43.4683 30.6198 43.3589C30.5787 43.255 30.5158 43.1593 30.4611 43.0608L34.2872 41.5596C34.3118 41.669 34.331 41.7811 34.372 41.885C34.4158 41.9971 34.4787 42.0928 34.5335 42.1885C34.0764 42.3088 33.6166 42.4292 33.1623 42.6069L34.955 47.1763Z" fill="white"/>
<path d="M37.4537 39.3475C37.5057 39.4486 37.5549 39.5608 37.6179 39.651C37.6808 39.744 37.7711 39.826 37.8478 39.908C37.4126 40.1377 36.9337 40.3975 36.2768 40.8788L37.2648 42.2816L37.9436 41.8031C38.2364 41.5952 38.4855 41.382 38.7044 41.1796C38.7537 41.2808 38.8057 41.3929 38.8686 41.4831C38.9316 41.5761 39.0219 41.6581 39.0985 41.7402C38.8358 41.8769 38.5484 42.041 38.2556 42.2461L37.5768 42.7246L38.7455 44.379C39.405 43.9032 39.8265 43.5587 40.1878 43.225C40.2398 43.3262 40.289 43.4356 40.352 43.5286C40.4149 43.6215 40.5052 43.7036 40.5819 43.7856L38.0968 45.5385L34.9659 41.0976L37.4509 39.3447" fill="white"/>
<path d="M42.8863 40.8922L43.3078 40.3617C43.9893 39.4976 44.0796 38.4995 42.6126 37.34C41.4358 36.4103 40.5326 36.599 39.8347 37.4822L39.3503 38.0948L42.8863 40.8895M39.9387 36.6072C41.0472 35.3083 42.4156 35.4942 43.4419 36.3064C44.8568 37.4248 44.9088 39.0819 43.8935 40.3672L42.5059 42.12L38.2446 38.7483L39.936 36.6072H39.9387Z" fill="white"/>
</g>
<defs>
<clipPath id="clip0_1386_448">
<rect width="52" height="52" fill="white"/>
</clipPath>
</defs>
</svg>
