<svg width="64" height="49" viewBox="0 0 64 49" fill="none" xmlns="http://www.w3.org/2000/svg">
<path d="M32.3808 23.5467C33.555 22.5918 34.6393 21.3046 35.3375 19.9224C34.3802 19.6164 33.3699 19.4001 32.3808 19.4001V23.5467ZM31.6509 23.515C30.4397 22.5971 29.3607 21.3098 28.6625 19.9276C29.6145 19.59 30.6301 19.4054 31.6509 19.4054V23.515ZM32.3808 5.003C33.555 5.9526 34.6393 7.20819 35.3375 8.59567C34.3802 8.92804 33.3699 9.14961 32.3808 9.14961V5.003ZM31.6509 5.003C30.4397 5.9526 29.3607 7.24512 28.6625 8.59567C29.6145 8.90166 30.6301 9.14961 31.6509 9.14961V5.003ZM32.3808 18.6668V14.6098H36.7974C36.7974 16.24 36.3848 17.8332 35.6866 19.3104C34.6711 18.9464 33.4598 18.6932 32.3808 18.6668ZM42.0126 14.6098H37.5643C37.5008 16.393 37.1147 17.9915 36.3901 19.5847C37.3421 20.0173 38.1937 20.5343 39.0241 21.2096C40.8383 19.4317 41.9121 17.0683 42.0126 14.6098ZM38.4846 21.6739C37.7864 21.0883 36.8926 20.5343 36.0357 20.202C35.2423 21.6422 34.2585 22.8398 33.0155 23.916C35.0202 23.668 36.8926 22.9347 38.4846 21.6739ZM31.6509 18.6668V14.6098H27.2079C27.2344 16.24 27.6152 17.8649 28.3187 19.3104C29.3607 18.9464 30.5084 18.6932 31.6509 18.6668ZM21.9874 14.6098H26.441C26.5362 16.393 26.917 17.9546 27.6522 19.5847C26.6631 20.0173 25.8063 20.5343 24.9812 21.2096C23.1617 19.4317 22.1197 17.1263 21.9874 14.6098ZM25.5154 21.6739C26.2506 21.1199 27.1021 20.508 27.9643 20.202C28.7577 21.6422 29.7415 22.8398 30.9845 23.916C28.9798 23.668 27.0757 22.9347 25.5154 21.6739ZM32.3808 9.85126V13.9082H36.7974C36.7974 12.278 36.3848 10.7165 35.6866 9.20764C34.6446 9.57693 33.4916 9.81961 32.3808 9.85126ZM42.0126 13.9029H37.5643C37.5008 12.1514 37.0883 10.5265 36.3901 8.95969C37.3421 8.52709 38.2307 7.97315 39.0241 7.32953C40.9283 9.17071 41.9121 11.4814 42.0126 13.9029ZM38.4846 6.84418C37.7547 7.46142 36.8926 8.01008 36.0357 8.34772C35.2423 6.87056 34.2585 5.70465 33.0155 4.60205C35.0202 4.85 36.8926 5.58859 38.4846 6.84418ZM31.6509 9.85126V13.9082H27.2079C27.2344 12.3097 27.6152 10.6848 28.3187 9.20764C29.3607 9.57693 30.5084 9.81961 31.6509 9.85126ZM21.9874 13.9029H26.441C26.5362 12.1198 26.917 10.5582 27.6522 8.95969C26.6631 8.52709 25.8063 8.00481 24.9812 7.32953C23.1299 9.11796 22.1197 11.4181 21.9874 13.9029ZM25.5154 6.84418C26.2506 7.46142 27.0757 8.01008 27.9643 8.34772C28.7259 6.90221 29.7732 5.67827 30.9845 4.60205C28.9798 4.85 27.1021 5.58859 25.5154 6.84418ZM0 17.4956H19.9828C20.718 21.0566 23.2569 24.0057 28.3134 26.0632C27.7369 27.7513 25.7693 29.3129 23.7329 29.3129H12.9058C11.245 29.3129 9.94909 27.9571 9.40959 26.8861H20.4324C21.1041 26.7701 21.1359 26.2478 20.4641 26.1845H9.62645C8.23008 26.1845 6.95537 25.0133 6.22545 23.7577H18.8403C19.475 23.6628 19.475 23.1405 18.8403 23.0508H6.13025C4.86083 23.0508 3.68661 21.6106 3.20529 20.6293H17.1583C17.8565 20.5343 17.8565 19.9224 17.1583 19.8907H2.9514C1.84066 19.8907 0.761653 18.7248 0 17.4956ZM64 17.4956H44.0119C43.282 21.0566 40.7379 24.0057 35.6866 26.0632C36.2579 27.7513 38.2255 29.3129 40.2618 29.3129H51.0995C52.755 29.3129 54.0562 27.9571 54.5957 26.8861H43.5676C42.9012 26.7701 42.8641 26.2478 43.5359 26.1845H54.3736C55.7752 26.1845 57.0393 25.0133 57.7693 23.7577H45.1597C44.5197 23.6628 44.5197 23.1405 45.1597 23.0508H57.875C59.1445 23.0508 60.3134 21.6106 60.7894 20.6293H46.8364C46.1382 20.5343 46.1382 19.9224 46.8364 19.8907H61.0433C62.1593 19.8907 63.2436 18.7248 64 17.4956ZM41.4731 44.4539L47.8836 31.803H52.078L54.7174 44.4539H50.7451L50.5547 42.9503H46.355L45.6886 44.4539H41.4731ZM47.4129 40.3125H50.1104L49.4122 35.6753L47.4129 40.3125ZM33.1425 44.4539L34.6023 34.9367H30.884L31.524 31.7397H42.9329L42.2929 34.9367H38.7702L37.3421 44.4539H33.1425ZM15.9788 44.4539L22.4 31.803H26.5944L29.2337 44.4539H25.2932L25.0658 42.9503H20.8767L20.2102 44.4539H15.9788ZM21.9293 40.3125H24.6268L23.9233 35.6753L21.9293 40.3125ZM9.11868 44.4539L11.721 31.803H15.9788L13.3765 44.4539H9.11868Z" fill="white"/>
</svg>
