<svg width="210" height="71" viewBox="0 0 210 71" fill="none" xmlns="http://www.w3.org/2000/svg">
<g clip-path="url(#clip0_4_75)">
<g clip-path="url(#clip1_4_75)">
<path d="M5.01444e-06 26.264C5.95287 30.2816 13.1522 31.9851 20.2599 32.0218C39.837 32.2468 57.054 20.8964 76.2324 18.5087C88.3306 17.0578 102.39 19.4592 110.245 29.5975C101.208 21.5851 88.2573 20.4464 76.7915 22.3886C59.2399 25.5201 42.9486 35.2727 24.7692 35.1625C15.8514 35.1395 6.4478 32.7198 -0.00457764 26.2594L5.01444e-06 26.264Z" fill="#F8E928"/>
<path d="M11.6445 6.85528C19.7054 12.0254 29.8377 11.8693 38.8701 9.79391C52.9159 6.46499 66.5126 -1.43716 81.3879 0.224999C88.2711 0.918331 95.3513 3.7789 99.5169 9.51382C92.2121 3.3427 81.9882 2.56213 72.91 4.1646C58.713 6.80018 45.4278 14.7988 30.6442 14.2615C23.7382 14.0825 16.5067 11.9657 11.64 6.85987L11.6445 6.85528Z" fill="#F8E928"/>
<path d="M41.9221 45.186H37.2111V69.8429H41.7113C49.5705 69.8429 55.2714 64.512 55.2714 57.1655C55.2714 49.8189 50.0288 45.186 41.9221 45.186ZM50.2717 65.0814C48.0674 67.1338 45.0016 68.2634 41.6425 68.2634H38.7921V46.7701H41.8533C49.1352 46.7701 53.6583 50.7556 53.6583 57.1701C53.6583 60.2418 52.4576 63.0519 50.2717 65.086V65.0814Z" fill="white"/>
<path d="M68.9689 44.9472L68.5473 43.9095L68.1211 44.9427C66.4851 48.919 64.9866 52.629 63.5339 56.2105L62.4294 58.9379C61.2471 58.2354 60.074 57.5237 58.9329 56.8349L58.8825 56.8028L58.1859 56.3803V58.2262L58.415 58.3593C59.0429 58.7267 59.6661 59.0986 60.2939 59.4751C60.8072 59.7827 61.3204 60.0904 61.8337 60.3934L58.2226 69.2047L57.9614 69.8383H59.6524L59.7669 69.5491C60.4635 67.8043 61.183 66.0457 61.8795 64.3468C62.3057 63.2999 62.7365 62.2576 63.1581 61.2153C66.2514 63.0428 69.3768 64.907 72.4013 66.7161C74.4085 67.9145 76.4111 69.1083 78.4137 70.3021L79.5869 71L79.0691 69.7327L68.9643 44.9472H68.9689ZM76.379 67.267C74.4177 66.0916 72.4609 64.9207 70.4995 63.7499C68.2586 62.4137 66.0222 61.073 63.7813 59.7276L68.5381 48.0098L76.3745 67.267H76.379Z" fill="white"/>
<path d="M88.2298 44.6947C83.9038 44.6947 80.7692 47.4129 80.7692 51.1597C80.7692 55.1085 83.9542 56.7523 87.5011 58.217C90.6815 59.5256 93.3165 60.8709 93.3165 64.0437C93.3165 66.5967 90.9565 68.7501 88.1656 68.7501C86.1768 68.7501 84.0458 67.7859 82.4648 66.1651L81.6812 65.3615V67.6665L81.8278 67.8043C83.1889 69.0624 85.6727 70.3342 88.1656 70.3342C91.8959 70.3342 94.9296 67.4828 94.9296 63.9749C94.9296 59.8057 91.456 58.0517 88.1977 56.7431C84.7974 55.3564 82.3869 54.1396 82.3869 51.0954C82.3869 48.3083 84.8478 46.2834 88.2344 46.2834C90.489 46.2834 92.7208 47.3349 94.5218 49.245L95.3146 50.0852V47.7573L95.1771 47.6241C93.7335 46.2099 91.1535 44.6993 88.2344 44.6993L88.2298 44.6947Z" fill="white"/>
<path d="M115.758 45.186H114.635V55.4161H101.125V45.186H99.5444V69.8429H101.125V56.9956H114.635V69.8429H116.216V45.186H115.758Z" fill="white"/>
<path d="M127.696 60.5817C126.509 63.5157 125.29 66.4451 124.107 69.4159H123.411L127.173 60.2327C125.917 59.498 124.666 58.7312 123.411 57.9966V57.2298C124.735 58.0333 126.06 58.8369 127.416 59.6404C129.299 54.9983 131.178 50.3194 133.305 45.1539L143.409 69.9394C138.181 66.8308 132.956 63.6902 127.696 60.5817ZM127.975 59.9526C132.677 62.781 137.383 65.5727 142.085 68.4012L133.305 46.8252L127.975 59.9526Z" fill="white"/>
<path d="M145.641 45.6727L150.691 68.2267C152.886 64.4203 155.082 60.6138 157.277 56.812V50.8061H157.937V56.8808C160.132 60.6505 162.29 64.457 164.485 68.2267L169.535 45.6727H170.232L164.76 69.9715L157.584 57.542L150.407 69.9715C148.143 59.8837 146.539 52.7943 144.936 45.6727H145.632H145.641Z" fill="white"/>
<path d="M177.106 60.5817C175.919 63.5157 174.7 66.4451 173.518 69.4159H172.821L176.584 60.2327C175.328 59.498 174.077 58.7312 172.821 57.9966V57.2298C174.146 58.0333 175.47 58.8369 176.827 59.6404C178.71 54.9983 180.589 50.3194 182.715 45.1539L192.82 69.9394C187.591 66.8308 182.367 63.6902 177.106 60.5817ZM177.386 59.9526C182.087 62.781 186.794 65.5727 191.496 68.4012L182.715 46.8252L177.386 59.9526Z" fill="white"/>
<path d="M210 45.6727L201.22 57.2619V69.4113H200.56V57.3308C197.631 53.4555 194.708 49.5434 191.779 45.6681H192.581L200.876 56.7017C203.662 53.0009 206.416 49.3368 209.203 45.6681H210.005L210 45.6727Z" fill="white"/>
</g>
</g>
<defs>
<clipPath id="clip0_4_75">
<rect width="210" height="71" fill="white"/>
</clipPath>
<clipPath id="clip1_4_75">
<rect width="210" height="71" fill="white"/>
</clipPath>
</defs>
</svg>
